<svg xmlns="http://www.w3.org/2000/svg" viewBox="0 0 800 600" width="800" height="600" role="img" aria-label="相册占位图：通宵赶项目">
  <defs>
    <linearGradient id="room" x1="0" y1="0" x2="1" y2="1">
      <stop offset="0" stop-color="#1e293b" />
      <stop offset="1" stop-color="#0f172a" />
    </linearGradient>
  </defs>
  <rect width="800" height="600" fill="url(#room)" />
  <rect x="170" y="150" width="460" height="270" rx="18" fill="#0ea5e9" opacity="0.16" />
  <rect x="170" y="150" width="460" height="270" rx="18" fill="none" stroke="#7dd3fc" stroke-width="4" opacity="0.7" />
  <g fill="#7dd3fc" opacity="0.8">
    <rect x="210" y="196" width="190" height="14" rx="7" />
    <rect x="210" y="232" width="300" height="14" rx="7" />
    <rect x="210" y="268" width="140" height="14" rx="7" />
    <rect x="210" y="304" width="240" height="14" rx="7" />
    <rect x="210" y="340" width="100" height="14" rx="7" />
  </g>
  <rect x="420" y="430" width="60" height="90" rx="10" fill="#334155" />
  <rect x="330" y="520" width="240" height="16" rx="8" fill="#475569" />
  <g opacity="0.7">
    <rect x="700" y="452" width="56" height="70" rx="12" fill="#f8fafc" />
    <rect x="700" y="452" width="56" height="14" rx="7" fill="#cbd5e1" />
  </g>
</svg>
